<svg width="231" height="64" viewBox="0 0 231 64" fill="none" xmlns="http://www.w3.org/2000/svg">
<path d="M0 28.8668V24.3125C2.61268 24.3125 4.42495 23.7913 5.43679 22.749C6.44864 21.7067 6.95457 20.0225 6.95457 17.6962V12.6887C6.95457 9.89417 7.33967 7.65854 8.10988 5.98182C8.8952 4.28999 9.98256 3.01357 11.372 2.15255C12.7765 1.29153 14.4377 0.717515 16.3557 0.430507C18.2737 0.143502 20.3729 0 22.6533 0V7.20537C20.8712 7.20537 19.5121 7.43951 18.5757 7.90778C17.6545 8.36095 17.0277 9.07091 16.6955 10.0377C16.3632 10.9893 16.1971 12.1978 16.1971 13.663V20.2793C16.1971 21.4273 15.9857 22.5224 15.5628 23.5647C15.14 24.5919 14.3546 25.5058 13.2069 26.3064C12.0591 27.0919 10.4205 27.7188 8.29111 28.187C6.1617 28.6402 3.398 28.8668 0 28.8668ZM22.6533 57.3484C20.3729 57.3484 18.2737 57.2049 16.3557 56.9179C14.4377 56.6309 12.7765 56.0569 11.372 55.1959C9.98256 54.3348 8.8952 53.0584 8.10988 51.3666C7.33967 49.6899 6.95457 47.4542 6.95457 44.6597V39.6295C6.95457 37.3033 6.44864 35.619 5.43679 34.5767C4.42495 33.5344 2.61268 33.0133 0 33.0133V28.4589C3.398 28.4589 6.1617 28.6931 8.29111 29.1614C10.4205 29.6145 12.0591 30.2414 13.2069 31.042C14.3546 31.8275 15.14 32.7414 15.5628 33.7837C15.9857 34.8109 16.1971 35.906 16.1971 37.0691V43.6854C16.1971 45.1355 16.3632 46.3364 16.6955 47.2881C17.0277 48.2548 17.6545 48.9648 18.5757 49.418C19.5121 49.8862 20.8712 50.1204 22.6533 50.1204V57.3484ZM0 33.0133V24.3125H8.13254V33.0133H0Z" fill="#3A69DE"/>
<path d="M69.6798 28.4589V33.0133C67.0822 33.0133 65.2699 33.5344 64.243 34.5767C63.2311 35.619 62.7252 37.3033 62.7252 39.6295V44.6597C62.7252 47.4542 62.3325 49.6899 61.5472 51.3666C60.777 53.0584 59.6897 54.3348 58.2851 55.1959C56.8957 56.0569 55.2421 56.6309 53.3241 56.9179C51.4212 57.2049 49.322 57.3484 47.0265 57.3484V50.1204C48.8085 50.1204 50.1602 49.8862 51.0814 49.418C52.0177 48.9648 52.652 48.2548 52.9843 47.2881C53.3165 46.3364 53.4826 45.1355 53.4826 43.6854V37.0691C53.4826 35.906 53.6941 34.8109 54.1169 33.7837C54.5398 32.7414 55.3251 31.8275 56.4729 31.042C57.6207 30.2414 59.2592 29.6145 61.3887 29.1614C63.5181 28.6931 66.2818 28.4589 69.6798 28.4589ZM47.0265 0C49.322 0 51.4212 0.143502 53.3241 0.430507C55.2421 0.717515 56.8957 1.29153 58.2851 2.15255C59.6897 3.01357 60.777 4.28999 61.5472 5.98182C62.3325 7.65854 62.7252 9.89417 62.7252 12.6887V17.6962C62.7252 20.0225 63.2311 21.7067 64.243 22.749C65.2699 23.7913 67.0822 24.3125 69.6798 24.3125V28.8668C66.2818 28.8668 63.5181 28.6402 61.3887 28.187C59.2592 27.7188 57.6207 27.0919 56.4729 26.3064C55.3251 25.5058 54.5398 24.5919 54.1169 23.5647C53.6941 22.5224 53.4826 21.4273 53.4826 20.2793V13.663C53.4826 12.1978 53.3165 10.9893 52.9843 10.0377C52.652 9.07091 52.0177 8.36095 51.0814 7.90778C50.1602 7.43951 48.8085 7.20537 47.0265 7.20537V0ZM69.6798 24.3125V33.0133H61.5472V24.3125H69.6798Z" fill="#3A69DE"/>
<path d="M35.2803 47.9452C31.701 47.9452 28.6202 47.2201 26.0377 45.77C23.4703 44.3047 21.4919 42.2353 20.1025 39.5616C18.7131 36.8728 18.0184 33.693 18.0184 30.0224C18.0184 26.4423 18.7131 23.3004 20.1025 20.5965C21.4919 17.8926 23.4477 15.7853 25.9698 14.2748C28.5069 12.7642 31.4821 12.009 34.8952 12.009C37.1907 12.009 39.3277 12.379 41.306 13.1192C43.2995 13.8443 45.0363 14.9394 46.5163 16.4047C48.0114 17.8699 49.1743 19.7128 50.0049 21.9333C50.8355 24.1387 51.2508 26.7218 51.2508 29.6825V32.3335H21.8695V26.3517H42.1669C42.1669 24.962 41.8648 23.7309 41.2607 22.6584C40.6566 21.5859 39.8185 20.7475 38.7462 20.1433C37.6891 19.524 36.4582 19.2143 35.0537 19.2143C33.5888 19.2143 32.29 19.5542 31.1574 20.2339C30.0398 20.8986 29.1639 21.7974 28.5296 22.9303C27.8953 24.0481 27.5706 25.2943 27.5555 26.6689V32.3562C27.5555 34.0782 27.8726 35.5661 28.5069 36.8199C29.1563 38.0737 30.07 39.0404 31.248 39.7202C32.4259 40.3999 33.8229 40.7398 35.4388 40.7398C36.5111 40.7398 37.4927 40.5887 38.3838 40.2866C39.2748 39.9845 40.0375 39.5313 40.6718 38.9271C41.306 38.3229 41.7893 37.5827 42.1216 36.7066L51.047 37.2957C50.5939 39.4407 49.6651 41.3138 48.2606 42.915C46.8712 44.5011 45.074 45.7398 42.8691 46.631C40.6793 47.5071 38.1497 47.9452 35.2803 47.9452Z" fill="#3A69DE"/>
<path d="M79.2653 24.9333L72.6279 1.7311H77.9854L81.8251 17.8526H82.0177L86.2538 1.7311H90.8411L95.066 17.8865H95.2699L99.1096 1.7311H104.467L97.8297 24.9333H93.0498L88.6324 9.7635H88.4512L84.0451 24.9333H79.2653Z" fill="white"/>
<path d="M113.061 25.2732C111.272 25.2732 109.731 24.9106 108.44 24.1856C107.156 23.453 106.167 22.4182 105.472 21.0814C104.778 19.737 104.43 18.1471 104.43 16.3118C104.43 14.5218 104.778 12.9508 105.472 11.5988C106.167 10.2469 107.145 9.19327 108.406 8.43799C109.675 7.68271 111.162 7.30507 112.869 7.30507C114.016 7.30507 115.085 7.49011 116.074 7.8602C117.071 8.22273 117.939 8.77031 118.679 9.50293C119.427 10.2356 120.008 11.157 120.424 12.2673C120.839 13.37 121.046 14.6615 121.046 16.1418V17.4674H106.356V14.4765H116.504C116.504 13.7816 116.353 13.166 116.051 12.6298C115.749 12.0935 115.33 11.6744 114.794 11.3722C114.266 11.0626 113.65 10.9078 112.948 10.9078C112.215 10.9078 111.566 11.0777 111 11.4176C110.441 11.7499 110.003 12.1993 109.686 12.7657C109.369 13.3246 109.206 13.9478 109.199 14.6351V17.4787C109.199 18.3397 109.357 19.0837 109.675 19.7105C109.999 20.3374 110.456 20.8208 111.045 21.1607C111.634 21.5006 112.333 21.6705 113.14 21.6705C113.677 21.6705 114.167 21.595 114.613 21.4439C115.058 21.2929 115.44 21.0663 115.757 20.7642C116.074 20.462 116.316 20.092 116.482 19.6539L120.945 19.9485C120.718 21.021 120.254 21.9575 119.551 22.7581C118.857 23.5511 117.958 24.1705 116.856 24.6161C115.761 25.0541 114.496 25.2732 113.061 25.2732Z" fill="white"/>
<path d="M124.286 24.9333V1.7311H129.111V10.4546H129.258C129.47 9.98631 129.776 9.51048 130.176 9.02711C130.584 8.53617 131.112 8.12832 131.761 7.80355C132.418 7.47123 133.234 7.30507 134.208 7.30507C135.477 7.30507 136.647 7.63739 137.719 8.30204C138.792 8.95913 139.649 9.95232 140.29 11.2816C140.932 12.6034 141.253 14.2612 141.253 16.2551C141.253 18.1962 140.94 19.8352 140.313 21.172C139.694 22.5013 138.848 23.5096 137.776 24.1969C136.711 24.8767 135.518 25.2165 134.197 25.2165C133.26 25.2165 132.464 25.0617 131.807 24.752C131.157 24.4424 130.625 24.0534 130.21 23.5851C129.794 23.1093 129.477 22.6297 129.258 22.1463H129.043V24.9333H124.286ZM129.009 16.2325C129.009 17.2672 129.153 18.1698 129.44 18.9402C129.726 19.7105 130.142 20.311 130.685 20.7415C131.229 21.1645 131.89 21.3759 132.668 21.3759C133.453 21.3759 134.117 21.1607 134.661 20.7302C135.205 20.2921 135.616 19.6879 135.896 18.9175C136.183 18.1396 136.326 17.2446 136.326 16.2325C136.326 15.228 136.186 14.3443 135.907 13.5814C135.628 12.8186 135.216 12.2219 134.672 11.7914C134.129 11.3609 133.46 11.1457 132.668 11.1457C131.882 11.1457 131.218 11.3534 130.674 11.7688C130.138 12.1842 129.726 12.7733 129.44 13.5361C129.153 14.299 129.009 15.1977 129.009 16.2325Z" fill="white"/>
<path d="M82.2669 57.4744H74.0437V34.2722H82.3348C84.6681 34.2722 86.6767 34.7367 88.3606 35.6657C90.0445 36.5871 91.3395 37.9126 92.2456 39.6422C93.1593 41.3718 93.6162 43.4413 93.6162 45.8506C93.6162 48.2675 93.1593 50.3445 92.2456 52.0817C91.3395 53.8188 90.0369 55.1519 88.3379 56.0809C86.6465 57.0099 84.6228 57.4744 82.2669 57.4744ZM78.9481 53.2713H82.063C83.5128 53.2713 84.7323 53.0145 85.7215 52.5009C86.7182 51.9797 87.4658 51.1753 87.9642 50.0877C88.4701 48.9926 88.723 47.5802 88.723 45.8506C88.723 44.1361 88.4701 42.7351 87.9642 41.6475C87.4658 40.5599 86.722 39.7593 85.7328 39.2457C84.7436 38.7321 83.5241 38.4753 82.0743 38.4753H78.9481V53.2713Z" fill="white"/>
<path d="M105.087 57.8143C103.298 57.8143 101.757 57.4517 100.466 56.7267C99.1823 55.994 98.1931 54.9593 97.4984 53.6225C96.8037 52.2781 96.4563 50.6882 96.4563 48.8529C96.4563 47.0628 96.8037 45.4919 97.4984 44.1399C98.1931 42.788 99.1709 41.7344 100.432 40.9791C101.701 40.2238 103.188 39.8462 104.895 39.8462C106.042 39.8462 107.111 40.0312 108.1 40.4013C109.097 40.7638 109.965 41.3114 110.705 42.044C111.453 42.7766 112.034 43.6981 112.45 44.8083C112.865 45.911 113.073 47.2026 113.073 48.6829V50.0084H98.3819V47.0175H108.531C108.531 46.3227 108.38 45.7071 108.077 45.1709C107.775 44.6346 107.356 44.2154 106.82 43.9133C106.292 43.6037 105.676 43.4488 104.974 43.4488C104.242 43.4488 103.592 43.6188 103.026 43.9586C102.467 44.291 102.029 44.7404 101.712 45.3068C101.395 45.8657 101.232 46.4888 101.225 47.1761V50.0198C101.225 50.8808 101.383 51.6247 101.701 52.2516C102.025 52.8785 102.482 53.3619 103.071 53.7018C103.66 54.0416 104.359 54.2116 105.167 54.2116C105.703 54.2116 106.193 54.136 106.639 53.985C107.085 53.8339 107.466 53.6074 107.783 53.3052C108.1 53.0031 108.342 52.633 108.508 52.195L112.971 52.4895C112.744 53.562 112.28 54.4986 111.577 55.2992C110.883 56.0922 109.984 56.7115 108.882 57.1572C107.787 57.5952 106.522 57.8143 105.087 57.8143Z" fill="white"/>
<path d="M131.974 40.0727L125.891 57.4744H120.455L114.372 40.0727H119.469L123.082 52.5235H123.264L126.866 40.0727H131.974Z" fill="white"/>
<path d="M141.811 57.8143C140.021 57.8143 138.481 57.4517 137.19 56.7267C135.906 55.994 134.917 54.9593 134.222 53.6225C133.528 52.2781 133.18 50.6882 133.18 48.8529C133.18 47.0628 133.528 45.4919 134.222 44.1399C134.917 42.788 135.895 41.7344 137.156 40.9791C138.424 40.2238 139.912 39.8462 141.619 39.8462C142.766 39.8462 143.835 40.0312 144.824 40.4013C145.821 40.7638 146.689 41.3114 147.429 42.044C148.177 42.7766 148.758 43.6981 149.173 44.8083C149.589 45.911 149.796 47.2026 149.796 48.6829V50.0084H135.106V47.0175H145.254C145.254 46.3227 145.103 45.7071 144.801 45.1709C144.499 44.6346 144.08 44.2154 143.544 43.9133C143.015 43.6037 142.4 43.4488 141.698 43.4488C140.965 43.4488 140.316 43.6188 139.75 43.9586C139.191 44.291 138.753 44.7404 138.436 45.3068C138.119 45.8657 137.956 46.4888 137.949 47.1761V50.0198C137.949 50.8808 138.107 51.6247 138.424 52.2516C138.749 52.8785 139.206 53.3619 139.795 53.7018C140.384 54.0416 141.082 54.2116 141.89 54.2116C142.426 54.2116 142.917 54.136 143.363 53.985C143.808 53.8339 144.19 53.6074 144.507 53.3052C144.824 53.0031 145.066 52.633 145.232 52.195L149.694 52.4895C149.468 53.562 149.003 54.4986 148.301 55.2992C147.607 56.0922 146.708 56.7115 145.606 57.1572C144.511 57.5952 143.246 57.8143 141.811 57.8143Z" fill="white"/>
<path d="M157.77 34.2722V57.4744H152.945V34.2722H157.77Z" fill="white"/>
<path d="M169.496 57.8143C167.737 57.8143 166.215 57.4404 164.932 56.6927C163.655 55.9374 162.67 54.8875 161.975 53.5431C161.281 52.1912 160.933 50.624 160.933 48.8415C160.933 47.044 161.281 45.473 161.975 44.1286C162.67 42.7766 163.655 41.7268 164.932 40.9791C166.215 40.2238 167.737 39.8462 169.496 39.8462C171.256 39.8462 172.773 40.2238 174.05 40.9791C175.333 41.7268 176.322 42.7766 177.017 44.1286C177.712 45.473 178.059 47.044 178.059 48.8415C178.059 50.624 177.712 52.1912 177.017 53.5431C176.322 54.8875 175.333 55.9374 174.05 56.6927C172.773 57.4404 171.256 57.8143 169.496 57.8143ZM169.519 54.0756C170.319 54.0756 170.988 53.849 171.524 53.3959C172.06 52.9352 172.464 52.3083 172.736 51.5152C173.015 50.7222 173.155 49.8196 173.155 48.8075C173.155 47.7955 173.015 46.8929 172.736 46.0999C172.464 45.3068 172.06 44.6799 171.524 44.2192C170.988 43.7585 170.319 43.5281 169.519 43.5281C168.711 43.5281 168.031 43.7585 167.48 44.2192C166.936 44.6799 166.525 45.3068 166.245 46.0999C165.974 46.8929 165.838 47.7955 165.838 48.8075C165.838 49.8196 165.974 50.7222 166.245 51.5152C166.525 52.3083 166.936 52.9352 167.48 53.3959C168.031 53.849 168.711 54.0756 169.519 54.0756Z" fill="white"/>
<path d="M181.197 64V40.0727H185.954V42.9957H186.169C186.381 42.5274 186.686 42.0516 187.087 41.5682C187.494 41.0773 188.023 40.6694 188.672 40.3446C189.329 40.0123 190.145 39.8462 191.119 39.8462C192.387 39.8462 193.558 40.1785 194.63 40.8431C195.702 41.5002 196.559 42.4934 197.201 43.8227C197.843 45.1444 198.164 46.8023 198.164 48.7962C198.164 50.7373 197.851 52.3762 197.224 53.7131C196.605 55.0424 195.759 56.0507 194.687 56.738C193.622 57.4177 192.429 57.7576 191.108 57.7576C190.171 57.7576 189.375 57.6028 188.718 57.2931C188.068 56.9835 187.536 56.5945 187.121 56.1262C186.705 55.6504 186.388 55.1708 186.169 54.6874H186.022V64H181.197ZM185.92 48.7736C185.92 49.8083 186.063 50.7109 186.35 51.4812C186.637 52.2516 187.053 52.8521 187.596 53.2826C188.14 53.7055 188.801 53.917 189.578 53.917C190.364 53.917 191.028 53.7018 191.572 53.2713C192.116 52.8332 192.527 52.229 192.807 51.4586C193.093 50.6806 193.237 49.7856 193.237 48.7736C193.237 47.769 193.097 46.8854 192.818 46.1225C192.538 45.3597 192.127 44.763 191.583 44.3325C191.04 43.902 190.371 43.6867 189.578 43.6867C188.793 43.6867 188.129 43.8945 187.585 44.3099C187.049 44.7253 186.637 45.3144 186.35 46.0772C186.063 46.84 185.92 47.7388 185.92 48.7736Z" fill="white"/>
<path d="M209.309 57.8143C207.52 57.8143 205.979 57.4517 204.688 56.7267C203.404 55.994 202.415 54.9593 201.721 53.6225C201.026 52.2781 200.679 50.6882 200.679 48.8529C200.679 47.0628 201.026 45.4919 201.721 44.1399C202.415 42.788 203.393 41.7344 204.654 40.9791C205.923 40.2238 207.41 39.8462 209.117 39.8462C210.265 39.8462 211.333 40.0312 212.322 40.4013C213.319 40.7638 214.187 41.3114 214.927 42.044C215.675 42.7766 216.256 43.6981 216.672 44.8083C217.087 45.911 217.295 47.2026 217.295 48.6829V50.0084H202.604V47.0175H212.753C212.753 46.3227 212.602 45.7071 212.3 45.1709C211.998 44.6346 211.579 44.2154 211.042 43.9133C210.514 43.6037 209.898 43.4488 209.196 43.4488C208.464 43.4488 207.814 43.6188 207.248 43.9586C206.689 44.291 206.251 44.7404 205.934 45.3068C205.617 45.8657 205.455 46.4888 205.447 47.1761V50.0198C205.447 50.8808 205.606 51.6247 205.923 52.2516C206.247 52.8785 206.704 53.3619 207.293 53.7018C207.882 54.0416 208.581 54.2116 209.389 54.2116C209.925 54.2116 210.416 54.136 210.861 53.985C211.307 53.8339 211.688 53.6074 212.005 53.3052C212.322 53.0031 212.564 52.633 212.73 52.195L217.193 52.4895C216.966 53.562 216.502 54.4986 215.8 55.2992C215.105 56.0922 214.206 56.7115 213.104 57.1572C212.009 57.5952 210.744 57.8143 209.309 57.8143Z" fill="white"/>
<path d="M220.444 57.4744V40.0727H225.121V43.109H225.303C225.62 42.0289 226.152 41.2132 226.9 40.6619C227.647 40.1029 228.508 39.8235 229.482 39.8235C229.724 39.8235 229.984 39.8386 230.264 39.8688C230.543 39.899 230.789 39.9406 231 39.9934V44.2759C230.773 44.2079 230.46 44.1475 230.06 44.0946C229.66 44.0417 229.293 44.0153 228.961 44.0153C228.251 44.0153 227.617 44.1701 227.058 44.4798C226.507 44.7819 226.069 45.2049 225.744 45.7487C225.427 46.2925 225.269 46.9193 225.269 47.6293V57.4744H220.444Z" fill="white"/>
</svg>
